<?xml version="1.0" encoding="UTF-8"?>
<svg version="1.1" xmlns="http://www.w3.org/2000/svg" width="512" height="512">
<path d="M0 0 C1.01790619 0.00215515 2.03581238 0.0043103 3.08456421 0.00653076 C17.69363523 0.05620146 32.02575853 0.30709809 46.375 3.3125 C47.34985352 3.51117676 48.32470703 3.70985352 49.32910156 3.91455078 C97.7109774 14.03517194 141.69928269 35.9516877 177.375 70.3125 C178.3640332 71.26068604 178.3640332 71.26068604 179.37304688 72.22802734 C188.86130305 81.37247479 197.6012044 90.66984009 205.375 101.3125 C206.23306152 102.46355017 207.09113451 103.61459177 207.94921875 104.765625 C213.98736829 112.95680614 219.34595521 121.47054105 224.375 130.3125 C224.73948242 130.94430176 225.10396484 131.57610352 225.47949219 132.22705078 C247.08534998 169.97532572 256.85198095 212.74189997 256.6875 255.9375 C256.68534485 256.95540619 256.6831897 257.97331238 256.68096924 259.02206421 C256.63129854 273.63113523 256.38040191 287.96325853 253.375 302.3125 C253.07698486 303.77478027 253.07698486 303.77478027 252.77294922 305.26660156 C242.65232806 353.6484774 220.7358123 397.63678269 186.375 433.3125 C185.74287598 433.97185547 185.11075195 434.63121094 184.45947266 435.31054688 C175.31502521 444.79880305 166.01765991 453.5387044 155.375 461.3125 C154.22394983 462.17056152 153.07290823 463.02863451 151.921875 463.88671875 C143.73224019 469.92427396 135.22961724 475.30707302 126.375 480.3125 C125.66778809 480.7146875 124.96057617 481.116875 124.23193359 481.53125 C101.09654164 494.5566741 75.92537591 503.30551461 49.9375 508.625 C49.21860596 508.77235596 48.49971191 508.91971191 47.7590332 509.0715332 C33.08339502 511.86090125 18.55831162 512.66142619 3.64770508 512.62817383 C0.70811513 512.6250221 -2.2304558 512.64854926 -5.16992188 512.67382812 C-18.54306192 512.71848737 -31.43916711 511.51301542 -44.625 509.3125 C-46.33055054 509.03031616 -46.33055054 509.03031616 -48.07055664 508.74243164 C-91.33802759 500.97044532 -132.38793216 480.98345309 -165.625 452.3125 C-166.37007813 451.67828125 -167.11515625 451.0440625 -167.8828125 450.390625 C-181.38779833 438.57948485 -194.05918743 425.82889772 -204.625 411.3125 C-205.48149066 410.16255169 -206.33826433 409.01281411 -207.1953125 407.86328125 C-213.23534209 399.67315742 -218.61867614 391.16870382 -223.625 382.3125 C-224.0271875 381.60528809 -224.429375 380.89807617 -224.84375 380.16943359 C-237.8691741 357.03404164 -246.61801461 331.86287591 -251.9375 305.875 C-252.08485596 305.15610596 -252.23221191 304.43721191 -252.3840332 303.6965332 C-255.35789088 288.05024391 -255.99800362 272.57681954 -255.9375 256.6875 C-255.93534485 255.66959381 -255.9331897 254.65168762 -255.93096924 253.60293579 C-255.88129854 238.99386477 -255.63040191 224.66174147 -252.625 210.3125 C-252.42632324 209.33764648 -252.22764648 208.36279297 -252.02294922 207.35839844 C-241.90232806 158.9765226 -219.9858123 114.98821731 -185.625 79.3125 C-184.99287598 78.65314453 -184.36075195 77.99378906 -183.70947266 77.31445312 C-174.56502521 67.82619695 -165.26765991 59.0862956 -154.625 51.3125 C-153.47394983 50.45443848 -152.32290823 49.59636549 -151.171875 48.73828125 C-142.98224019 42.70072604 -134.47961724 37.31792698 -125.625 32.3125 C-124.91778809 31.9103125 -124.21057617 31.508125 -123.48193359 31.09375 C-100.34654164 18.0683259 -75.17537591 9.31948539 -49.1875 4 C-48.46860596 3.85264404 -47.74971191 3.70528809 -47.0090332 3.5534668 C-31.36274391 0.57960912 -15.88931954 -0.06050362 0 0 Z " fill="#C5C4C9" transform="translate(255.625,-0.3125)"/>
<path d="M0 0 C23.38568298 -5.67309289 53.33043062 -10.04212257 75.08604431 2.80924225 C101.25340777 19.77119951 122.64783166 44.99358375 143.63070893 67.7407192 C152.2630381 77.07707895 161.15011872 86.1554529 170.04332614 95.24228108 C176.85319414 102.21956458 183.60179402 109.25602165 190.33938646 116.30303264 C191.96048032 117.99776855 193.5833929 119.69076666 195.20812941 121.3820107 C199.81804611 126.18425595 204.38615503 131.01994821 208.89471436 135.91756248 C210.25903262 137.38910947 211.63590756 138.84913405 213.02626419 140.29610443 C224.559435 152.33221618 224.559435 152.33221618 224.90659869 160.15131897 C224.82595124 163.14505563 224.46609709 166.04352902 224 169 C223.88763189 170.04810884 223.77526379 171.09621767 223.65949059 172.17608738 C223.36018285 174.93656743 222.92377385 177.64150086 222.4375 180.375 C222.26186523 181.3853833 222.08623047 182.3957666 221.90527344 183.43676758 C213.80111595 227.63166673 194.15942564 268.87615602 165 303 C164.36320312 303.74894531 163.72640625 304.49789063 163.0703125 305.26953125 C151.25297532 318.76520621 138.51448412 331.43558025 124 342 C122.85005169 342.85649066 121.70031411 343.71326433 120.55078125 344.5703125 C112.36065742 350.61034209 103.85620382 355.99367614 95 361 C94.29278809 361.4021875 93.58557617 361.804375 92.85693359 362.21875 C83.36293058 367.56395513 73.67071845 372.17872259 63.5625 376.25 C62.0784668 376.86101562 62.0784668 376.86101562 60.56445312 377.484375 C59.63697266 377.8453125 58.70949219 378.20625 57.75390625 378.578125 C56.93220947 378.90200195 56.1105127 379.22587891 55.26391602 379.55957031 C52.37548335 380.12149553 51.50190289 379.47349908 49 378 C47.35462737 376.61683238 47.35462737 376.61683238 45.71014023 374.98975563 C45.07806522 374.36906311 44.44599021 373.74837058 43.79476142 373.10886919 C42.76638046 372.08402786 42.76638046 372.08402786 41.71722412 371.03848267 C40.98188895 370.31332313 40.24655377 369.58816359 39.48893571 368.84102952 C37.01871491 366.40227482 34.55573734 363.95633582 32.09277344 361.51025391 C30.32540483 359.7619632 28.55768587 358.01402661 26.78964233 356.26641846 C21.47468744 351.00887124 16.16865432 345.7424032 10.86544931 340.47301012 C9.36337707 338.98053899 7.8611233 337.48825079 6.35883045 335.99600172 C-2.99666894 326.70252861 -12.34781284 317.40468704 -21.68909073 308.09691811 C-23.85321462 305.94069175 -26.01739267 303.78451979 -28.18164062 301.62841797 C-28.71947354 301.09260178 -29.25730646 300.55678558 -29.81143734 300.00473253 C-38.47859377 291.37141671 -47.16954601 282.76247768 -55.87068155 274.16342302 C-64.83430162 265.30408729 -73.77443295 256.42155828 -82.69326758 247.51713502 C-87.68873476 242.53090885 -92.69357021 237.55500584 -97.72492218 232.60496902 C-136.92138996 194.02048951 -136.92138996 194.02048951 -147.53299713 171.02672958 C-150.28524486 165.3482747 -153.58617678 159.98172816 -156.8125 154.5625 C-157.94552585 152.6271885 -159.07731607 150.69115218 -160.20703125 148.75390625 C-161.65286931 146.28423302 -163.06811707 143.90501906 -164.73706055 141.57788086 C-166.39766702 138.18829189 -166.0376204 136.59474695 -165 133 C-163.63989258 130.12939453 -163.63989258 130.12939453 -161.89453125 127.1328125 C-160.92326294 125.44961914 -160.92326294 125.44961914 -159.93237305 123.73242188 C-159.22600578 122.52979688 -158.51937563 121.32732626 -157.8125 120.125 C-157.09143169 118.8839118 -156.3711445 117.64236947 -155.65161133 116.40039062 C-154.174286 113.85403822 -152.69150329 111.31098696 -151.20410156 108.77050781 C-149.09959728 105.17476441 -147.01314188 101.56892054 -144.9296875 97.9609375 C-143.68279634 95.80699944 -142.43542418 93.65333973 -141.1875 91.5 C-140.60782471 90.49855957 -140.02814941 89.49711914 -139.4309082 88.46533203 C-138.89038818 87.53833496 -138.34986816 86.61133789 -137.79296875 85.65625 C-137.3239917 84.84994141 -136.85501465 84.04363281 -136.37182617 83.21289062 C-135.91912354 82.48263672 -135.4664209 81.75238281 -135 81 C-134.62722427 80.30601608 -134.25444855 79.61203217 -133.87037659 78.89701843 C-131.58365911 76.57772871 -130.00490418 76.50208558 -126.81797791 76.42456055 C-126.11975418 76.42794434 -125.42153046 76.43132812 -124.70214844 76.43481445 C-123.96192947 76.4229863 -123.22171051 76.41115814 -122.45906067 76.39897156 C-120.00886481 76.36604176 -117.55977773 76.36312776 -115.109375 76.36328125 C-113.40406846 76.3529667 -111.69876629 76.34190365 -109.99346924 76.3301239 C-106.41561475 76.3106742 -102.83815121 76.30727504 -99.26025391 76.3137207 C-94.68539854 76.31970595 -90.11258005 76.2755615 -85.53814316 76.21783161 C-82.01376978 76.18076516 -78.48988353 76.17593491 -74.96533966 76.18010521 C-73.27966963 76.17723952 -71.59397895 76.1632139 -69.90850067 76.13762856 C-56.69909205 75.95824926 -56.69909205 75.95824926 -52.36779785 78.61386108 C-50.6400475 80.3248233 -49.26573827 81.93038381 -48 84 C-47.01 83.67 -46.02 83.34 -45 83 C-37.41 90.59 -29.82 98.18 -22 106 C-25.97652435 98.70970535 -29.98038754 91.44984941 -34.09375 84.23828125 C-37 79.10786033 -37 79.10786033 -37 78 C-32.545 77.505 -32.545 77.505 -28 77 C-29.28857013 75.68445979 -30.58095891 74.37265903 -31.875 73.0625 C-32.95394531 71.96615234 -32.95394531 71.96615234 -34.0546875 70.84765625 C-35.87027192 68.94332001 -35.87027192 68.94332001 -38 68 C-36.5839494 64.21481268 -34.84578935 60.80250679 -32.83203125 57.30078125 C-31.873573 55.6288269 -31.873573 55.6288269 -30.89575195 53.9230957 C-30.20140232 52.71952475 -29.50698335 51.5159938 -28.8125 50.3125 C-28.09762824 49.06810878 -27.38303248 47.82355897 -26.66870117 46.57885742 C-24.45054037 42.71650059 -22.22595719 38.85786757 -20 35 C-19.46560303 34.07356689 -19.46560303 34.07356689 -18.92041016 33.12841797 C-17.87416294 31.31469811 -16.82774766 29.50107536 -15.78125 27.6875 C-15.27654427 26.81281319 -15.27654427 26.81281319 -14.76164246 25.92045593 C-13.1635633 23.15143903 -11.5640107 20.38329122 -9.9621582 17.61645508 C-9.38296631 16.61509521 -8.80377441 15.61373535 -8.20703125 14.58203125 C-7.7066333 13.71811768 -7.20623535 12.8542041 -6.69067383 11.96411133 C-5.24138487 9.4231991 -3.81365021 6.87244485 -2.39433289 4.31474304 C-1.94552608 3.50617702 -1.49671926 2.69761099 -1.03431225 1.86454296 C-0.52232769 0.9415942 -0.52232769 0.9415942 0 0 Z " fill="#8A8990" transform="translate(287,119)"/>
<path d="M0 0 C8.882509 -0.5596447 17.75886057 -0.98407455 26.65522957 -1.24349213 C30.78874332 -1.36812786 34.91011193 -1.53637937 39.03662109 -1.81054688 C65.54124469 -3.52531561 65.54124469 -3.52531561 72.79330444 2.20852661 C77.49483688 7.85724665 80.27915442 14.22871633 82.85266113 21.06158447 C84.34553858 24.88494861 86.30555668 28.24527351 88.47265625 31.71484375 C89.66985674 33.78872438 90.86650492 35.86292398 92.0625 37.9375 C92.67287109 38.99388672 93.28324219 40.05027344 93.91210938 41.13867188 C95.08089048 43.16481129 96.24482547 45.19375756 97.40283203 47.22607422 C98.43736517 49.02282834 99.49441179 50.80688126 100.57763672 52.57470703 C101.04572754 53.35571777 101.51381836 54.13672852 101.99609375 54.94140625 C102.40915771 55.60986572 102.82222168 56.2783252 103.24780273 56.96704102 C104.26600066 59.71891836 103.86298117 61.21605208 103 64 C101.83935547 66.3581543 101.83935547 66.3581543 100.3671875 68.82421875 C99.81554932 69.75782227 99.26391113 70.69142578 98.69555664 71.65332031 C98.09477295 72.65459961 97.49398926 73.65587891 96.875 74.6875 C95.5995148 76.84200668 94.32480263 78.99697115 93.05078125 81.15234375 C92.38643066 82.27237793 91.72208008 83.39241211 91.03759766 84.54638672 C87.66269316 90.25199173 84.36691855 96.00338483 81.0625 101.75 C79.29466985 104.82132666 77.52606332 107.8921278 75.75048828 110.95898438 C74.51259564 113.10949912 73.28830963 115.26787323 72.07373047 117.43164062 C71.13811279 119.08196289 71.13811279 119.08196289 70.18359375 120.765625 C69.6208374 121.76883789 69.05808105 122.77205078 68.47827148 123.80566406 C67.99044189 124.52979492 67.5026123 125.25392578 67 126 C66.34 126 65.68 126 65 126 C64.59386475 125.2879541 64.18772949 124.5759082 63.76928711 123.84228516 C62.18570801 121.06663831 60.60162016 118.29128258 59.01715088 115.5161438 C58.29821934 114.25684513 57.57942832 112.99746623 56.86077881 111.73800659 C52.81861495 104.65486455 48.76440458 97.57926241 44.66796875 90.52734375 C44.32489182 89.93598633 43.98181488 89.34462891 43.62834167 88.73535156 C41.98913964 85.90995745 40.34685574 83.08645693 38.69897461 80.26611328 C38.10995361 79.25145996 37.52093262 78.23680664 36.9140625 77.19140625 C36.3979541 76.30654541 35.8818457 75.42168457 35.35009766 74.51000977 C34 72 34 72 32 67 C9.23 67 -13.54 67 -37 67 C-35.53195771 62.59587313 -34.32284118 59.52117022 -32.05078125 55.640625 C-31.16011963 54.1090979 -31.16011963 54.1090979 -30.25146484 52.54663086 C-29.61160645 51.45874268 -28.97174805 50.37085449 -28.3125 49.25 C-27.30343243 47.51804223 -26.29437345 45.78607939 -25.28582764 44.05381775 C-24.23503417 42.25055192 -23.18189946 40.44866922 -22.12841797 38.64697266 C-18.68742921 32.75722803 -15.28296042 26.84639151 -11.875 20.9375 C-11.26052002 19.87499023 -10.64604004 18.81248047 -10.01293945 17.71777344 C-9.42859131 16.70618164 -8.84424316 15.69458984 -8.2421875 14.65234375 C-7.7354248 13.77570068 -7.22866211 12.89905762 -6.70654297 11.99584961 C-4.4388986 8.01498208 -2.21871085 4.00829586 0 0 Z " fill="#4D3D32" transform="translate(287,119)"/>
<path d="M0 0 C1.06383156 0.02157166 1.06383156 0.02157166 2.14915466 0.0435791 C2.90061768 0.042995 3.65208069 0.04241089 4.42631531 0.04180908 C6.91032599 0.044596 9.39313683 0.07571489 11.87693787 0.10705566 C13.59900253 0.11451594 15.32107567 0.12020988 17.04315186 0.12420654 C21.57583553 0.13947981 26.10800656 0.17877591 30.64048767 0.22302246 C35.26545781 0.26393885 39.89051078 0.28220977 44.51560974 0.30236816 C53.59070478 0.34526875 62.66541932 0.41354035 71.74021912 0.49768066 C70.45854637 2.90915927 69.1759456 5.32013648 67.89280701 7.73083496 C67.35114773 8.75031849 67.35114773 8.75031849 66.79854584 9.79039764 C64.36322079 14.36348084 61.84809325 18.86977198 59.17771912 23.31018066 C58.34660651 24.71880867 57.51590805 26.12768107 56.68553162 27.53674316 C54.73469666 30.83422111 52.76321718 34.11864627 50.78323364 37.3986969 C49.37689487 39.73729899 47.98514477 42.08439381 46.59571838 44.43307495 C45.56844655 46.15876059 44.52346964 47.87386691 43.47825623 49.58874512 C42.84927429 50.65568604 42.22029236 51.72262695 41.57225037 52.82189941 C41.00224304 53.77153564 40.43223572 54.72117188 39.84495544 55.69958496 C38.4743161 59.17116452 38.72584109 60.93437544 39.74021912 64.49768066 C40.8525073 66.97766925 40.8525073 66.97766925 42.33787537 69.34924316 C42.88476013 70.26995605 43.4316449 71.19066895 43.99510193 72.13928223 C44.5916156 73.12380371 45.18812927 74.1083252 45.80271912 75.12268066 C47.07099542 77.25469112 48.33786196 79.3875407 49.60350037 81.52111816 C50.60824402 83.20866211 50.60824402 83.20866211 51.63328552 84.93029785 C54.96055252 90.54356414 58.19187283 96.21222064 61.42475891 101.88018799 C62.47625324 103.72320188 63.53007475 105.56486958 64.58421326 107.40637207 C69.66061693 116.29499689 69.66061693 116.29499689 71.74021912 120.49768066 C61.83968825 120.79951713 51.94025873 121.03017684 42.03605652 121.1712389 C37.43627434 121.23896323 32.83964877 121.33071258 28.24168396 121.47839355 C23.79989443 121.62015766 19.36112924 121.69746832 14.91725159 121.73108482 C13.22639826 121.75502089 11.53570243 121.80177448 9.84614563 121.8721714 C4.54062304 122.08434145 -0.15484296 122.0690773 -5.25978088 120.49768066 C-9.15099539 116.58984987 -11.0772282 112.57589052 -13.25978088 107.49768066 C-13.97646212 106.22580776 -14.71032483 104.96304699 -15.4780426 103.72131348 C-16.32519836 102.22616211 -16.32519836 102.22616211 -17.18946838 100.70080566 C-17.83536926 99.56530273 -18.48127014 98.4297998 -19.14674377 97.2598877 C-19.80972454 96.08932286 -20.47239845 94.91858418 -21.13478088 93.74768066 C-26.71595233 83.85644636 -26.71595233 83.85644636 -32.55274963 74.11486816 C-33.26552063 72.95422852 -33.26552063 72.95422852 -33.99269104 71.7701416 C-34.84915829 70.38683534 -35.71899685 69.01167465 -36.60499573 67.64709473 C-38.35245806 64.81210386 -39.2987675 63.02395473 -39.04933167 59.65686035 C-38.18946521 56.216331 -36.93765149 53.69227904 -35.15431213 50.63049316 C-34.50679993 49.50836426 -33.85928772 48.38623535 -33.19215393 47.23010254 C-32.48578667 46.02747754 -31.77915651 44.82500693 -31.07228088 43.62268066 C-30.35121257 42.38159247 -29.63092538 41.14005013 -28.91139221 39.89807129 C-27.43406688 37.35171888 -25.95128417 34.80866763 -24.46388245 32.26818848 C-22.35937817 28.67244507 -20.27292276 25.0666012 -18.18946838 21.45861816 C-16.94257722 19.3046801 -15.69520506 17.15102039 -14.44728088 14.99768066 C-13.86760559 13.99624023 -13.2879303 12.9947998 -12.69068909 11.9630127 C-12.15016907 11.03601563 -11.60964905 10.10901855 -11.05274963 9.15393066 C-10.58377258 8.34762207 -10.11479553 7.54131348 -9.63160706 6.71057129 C-9.17890442 5.98031738 -8.72620178 5.25006348 -8.25978088 4.49768066 C-7.88929626 3.80140564 -7.51881165 3.10513062 -7.13710022 2.38775635 C-4.81792546 0.05282284 -3.21638402 0.02712487 0 0 Z " fill="#4D3D32" transform="translate(160.25978088378906,195.5023193359375)"/>
<path d="M0 0 C0.66 0 1.32 0 2 0 C3.52409324 2.64176161 5.0481842 5.28352454 6.57226562 7.92529297 C7.91337399 10.24985887 9.25451422 12.57440635 10.59570312 14.89892578 C13.75949129 20.38243539 16.92306547 25.86606744 20.08494568 31.35067749 C21.08249722 33.08100688 22.08018852 34.81125569 23.07788086 36.54150391 C24.32242486 38.69989383 25.56674296 40.85841403 26.81079102 43.01708984 C27.38885498 44.01949707 27.96691895 45.0219043 28.5625 46.0546875 C29.12066406 47.03018555 29.67882812 48.00568359 30.25390625 49.01074219 C31.47939317 51.10873741 32.74055699 53.18610405 34.02734375 55.24707031 C34.67832031 56.30249023 35.32929688 57.35791016 36 58.4453125 C36.598125 59.39164551 37.19625 60.33797852 37.8125 61.31298828 C39.23410776 64.52972657 39.1402644 65.71307095 38 69 C37.12981406 70.81952641 36.18617912 72.60485887 35.19140625 74.359375 C34.61414795 75.38434082 34.03688965 76.40930664 33.44213867 77.46533203 C32.82185791 78.54927246 32.20157715 79.63321289 31.5625 80.75 C30.92868408 81.86874512 30.29486816 82.98749023 29.6418457 84.14013672 C18.29775585 104.10883301 18.29775585 104.10883301 15.31958008 108.578125 C13.81428832 111.13142159 13.81428832 111.13142159 12.9206543 114.765625 C11.2824276 119.58515956 9.41136145 123.23816641 5 126 C-4.59585811 128.59151291 -14.86072556 128.08295901 -24.71948242 127.84570312 C-28.7570323 127.74888183 -32.78204908 127.77750339 -36.81980991 127.84489059 C-39.94451038 127.88426942 -43.06631122 127.86037413 -46.19087029 127.81748199 C-47.67743625 127.80387028 -49.16429831 127.80868521 -50.65072823 127.83296967 C-55.34787464 127.88670074 -59.54261925 127.66556107 -64 126 C-67.70899326 122.04029526 -69.7302462 117.93517498 -72 113 C-73.21962882 110.7884662 -74.50316041 108.62366445 -75.7890625 106.44921875 C-77.06974616 104.19646978 -78.34833755 101.94253028 -79.625 99.6875 C-81.01130203 97.24511414 -82.39959451 94.80386728 -83.7890625 92.36328125 C-84.13664612 91.75262817 -84.48422974 91.1419751 -84.84234619 90.51281738 C-87.24740144 86.29647886 -89.68654889 82.10134861 -92.1484375 77.91796875 C-92.79731934 76.81428955 -93.44620117 75.71061035 -94.11474609 74.57348633 C-95.35098615 72.47610469 -96.59077469 70.38080969 -97.83447266 68.2878418 C-98.65890869 66.88852417 -98.65890869 66.88852417 -99.5 65.4609375 C-99.9846875 64.64415527 -100.469375 63.82737305 -100.96875 62.98583984 C-102 61 -102 61 -102 59 C-79.23 59 -56.46 59 -33 59 C-32.34 57.35 -31.68 55.7 -31 54 C-29.96310728 52.06003488 -28.89208452 50.13811842 -27.796875 48.23046875 C-27.15242432 47.10495605 -26.50797363 45.97944336 -25.84399414 44.81982422 C-25.14610982 43.60898392 -24.44810926 42.39821062 -23.75 41.1875 C-23.0355297 39.94298372 -22.32125787 38.69835348 -21.60717773 37.45361328 C-16.20061899 28.04000072 -10.74268358 18.65626416 -5.25488281 9.28979492 C-4.70799805 8.35627197 -4.16111328 7.42274902 -3.59765625 6.4609375 C-3.11820557 5.64415527 -2.63875488 4.82737305 -2.14477539 3.98583984 C-1.39126359 2.67872426 -0.6747342 1.3494684 0 0 Z " fill="#4D3D32" transform="translate(352,267)"/>
<path d="M0 0 C20.79 0 41.58 0 63 0 C67.62 8.25 72.24 16.5 77 25 C80.15161802 30.43343464 83.32462856 35.84937442 86.53125 41.25 C87.09328125 42.20390625 87.6553125 43.1578125 88.234375 44.140625 C88.72131836 44.96079102 89.20826172 45.78095703 89.70996094 46.62597656 C91.01619785 49.02980846 92.00485506 51.45456154 93 54 C85.07249194 54.34893548 77.14822912 54.61470013 69.214921 54.77718258 C65.52991148 54.85521206 61.85018132 54.96078359 58.16821289 55.1315918 C34.53255634 56.19901215 34.53255634 56.19901215 28.86935425 52.67367554 C25.60571986 49.30136731 24.07234819 45.39635189 22.67874146 40.97592163 C21.6510431 37.98413234 20.01371357 35.44889015 18.33984375 32.77734375 C17.20452489 30.83143129 16.07040759 28.88481729 14.9375 26.9375 C14.34114746 25.91325928 13.74479492 24.88901855 13.13037109 23.83374023 C11.41820928 20.89033743 9.70833735 17.94562389 8 15 C7.53513184 14.19852539 7.07026367 13.39705078 6.59130859 12.57128906 C5.43269416 10.57016771 4.27763456 8.56707017 3.125 6.5625 C2.50882813 5.49128906 1.89265625 4.42007813 1.2578125 3.31640625 C0 1 0 1 0 0 Z " fill="#4D3D32" transform="translate(250,197)"/>
<path d="M0 0 C2.44420626 3.1069791 4.4202139 6.34121833 6.37109375 9.77734375 C7.02287598 10.92122559 7.6746582 12.06510742 8.34619141 13.24365234 C9.39910781 15.10178757 10.45062804 16.9607087 11.50213623 18.81964111 C12.5801632 20.72520348 13.65895921 22.63032714 14.73828125 24.53515625 C15.27548798 25.48400696 15.27548798 25.48400696 15.82354736 26.45202637 C18.08951002 30.44015145 20.41669281 34.38474049 22.79296875 38.30859375 C23.35894775 39.25549072 23.92492676 40.2023877 24.50805664 41.17797852 C25.56263662 42.9369918 26.63280121 44.6867826 27.72045898 46.42553711 C31.09398572 52.10834058 31.09398572 52.10834058 30.6953125 55.890625 C28.12560477 60.6037295 25.49878874 65.26345718 22.75 69.875 C21.48913594 72.00754804 20.22873362 74.14036914 18.96875 76.2734375 C18.31777344 77.37268555 17.66679687 78.47193359 16.99609375 79.60449219 C14.98373129 83.02767431 13.00302438 86.46736185 11.03125 89.9140625 C10.39735352 91.01766113 9.76345703 92.12125977 9.11035156 93.25830078 C7.88306139 95.39687807 6.66093585 97.53842866 5.44433594 99.68310547 C4.89036133 100.64361816 4.33638672 101.60413086 3.765625 102.59375 C3.03520996 103.87282227 3.03520996 103.87282227 2.29003906 105.17773438 C1.65146973 106.07975586 1.65146973 106.07975586 1 107 C0.34 107 -0.32 107 -1 107 C-1.41137207 106.27748047 -1.82274414 105.55496094 -2.24658203 104.81054688 C-3.84356783 102.0070775 -5.44219676 99.20455001 -7.04107666 96.40216064 C-8.12561792 94.49891562 -9.20723273 92.59402929 -10.28857422 90.68896484 C-13.86046285 84.40894655 -17.47753391 78.16986034 -21.25 72.0078125 C-21.90339355 70.92951172 -22.55678711 69.85121094 -23.22998047 68.74023438 C-24.47265723 66.69739033 -25.73162108 64.66434624 -27.00830078 62.64257812 C-27.56501465 61.72154297 -28.12172852 60.80050781 -28.6953125 59.8515625 C-29.19047363 59.05572754 -29.68563477 58.25989258 -30.19580078 57.43994141 C-31.32979149 53.99941221 -30.43287826 52.27004422 -29 49 C-28.10544841 47.27351874 -27.15780721 45.57369994 -26.1640625 43.90234375 C-25.59985596 42.94553711 -25.03564941 41.98873047 -24.4543457 41.00292969 C-23.85066162 39.99133789 -23.24697754 38.97974609 -22.625 37.9375 C-21.35974555 35.79612305 -20.09544155 33.65418426 -18.83203125 31.51171875 C-18.19346191 30.43067871 -17.55489258 29.34963867 -16.89697266 28.23583984 C-13.47290721 22.39509809 -10.14308982 16.50042046 -6.82080078 10.60131836 C-6.36044434 9.78928955 -5.90008789 8.97726074 -5.42578125 8.140625 C-5.02786377 7.43454102 -4.62994629 6.72845703 -4.2199707 6.00097656 C-2.93445931 3.8925012 -1.5112245 1.95148526 0 0 Z " fill="#4D3D32" transform="translate(241,202)"/>
<path d="M0 0 C3.65836656 0.20641027 7.31951919 0.29630037 10.98205566 0.39672852 C18.14068992 0.60986809 25.28556274 0.94996974 32.43518066 1.37329102 C31.01725905 4.99467302 29.43363905 8.33893089 27.52893066 11.73266602 C26.95449219 12.75827637 26.38005371 13.78388672 25.78820801 14.84057617 C24.87095947 16.46552002 24.87095947 16.46552002 23.93518066 18.12329102 C23.30950195 19.23623535 22.68382324 20.34917969 22.03918457 21.49584961 C17.32193714 29.86235676 12.51529493 38.17205669 7.58508301 46.41479492 C5.84112148 49.38508354 4.14409062 52.38269859 2.43518066 55.37329102 C-18.35481934 55.37329102 -39.14481934 55.37329102 -60.56481934 55.37329102 C-56.56264392 48.03596942 -52.54398445 40.71555389 -48.43981934 33.43579102 C-47.94739746 32.55600586 -47.45497559 31.6762207 -46.94763184 30.76977539 C-45.85134683 28.82549765 -44.71676378 26.90251918 -43.55310059 24.99780273 C-41.88937814 22.16383659 -40.73991934 19.27668469 -39.57653809 16.20581055 C-31.69491852 -2.54060984 -17.84388292 -1.11405085 0 0 Z " fill="#4D3D32" transform="translate(310.5648193359375,259.626708984375)"/>
</svg>
